P2
80 60
255
255
255
255
255
255
255
255
255
255
255
255
255
255
255
255
255
255
255
255
255
255
255
255
255
255
255
255
255
255
255
255
255
255
255
255
255
255
255
255
255
255
255
255
255
255
255
255
255
255
255
255
255
255
255
255
255
255
255
255
255
255
255
255
255
255
255
255
255
255
255
255
255
255
255
255
255
255
255
255
255
127
0
0
0
0
0
0
0
0
0
0
0
0
0
0
0
0
0
127
127
127
127
127
0
0
0
0
0
0
0
0
0
0
0
0
0
0
0
0
0
0
0
0
0
0
0
0
0
0
0
0
0
0
0
0
0
0
0
0
0
0
0
0
0
0
0
0
0
0
0
0
0
0
0
0
0
0
0
127
127
127
0
0
0
0
0
0
0
0
0
0
0
0
0
0
0
0
0
127
127
127
127
127
127
0
0
0
0
0
0
0
0
0
0
0
0
0
0
0
0
0
0
0
0
0
0
0
0
127
127
127
127
127
127
127
127
127
127
127
127
0
0
0
0
0
0
0
0
0
0
0
0
0
0
0
0
0
127
127
127
127
127
0
0
0
0
0
0
0
0
0
0
0
0
0
0
0
127
127
127
127
127
127
127
0
0
0
0
0
0
0
0
0
0
0
0
0
0
0
0
0
0
0
0
0
0
0
127
127
127
127
127
63
63
127
127
127
127
127
127
127
127
127
127
127
0
0
0
0
0
127
127
0
0
0
0
0
127
127
127
127
127
0
0
0
0
0
0
0
0
0
0
191
0
0
0
0
127
127
127
63
127
127
127
0
0
0
0
0
0
0
0
0
0
0
0
0
0
0
0
0
0
0
0
0
0
0
127
127
127
127
127
63
63
63
127
127
127
127
127
127
127
127
127
127
127
0
0
0
127
127
127
127
127
0
0
0
127
127
127
127
127
0
0
0
0
0
0
0
0
0
0
0
0
0
0
127
127
127
127
63
63
127
127
127
0
0
0
0
0
0
0
0
0
0
0
0
0
0
0
0
0
0
0
0
0
127
127
127
127
127
63
63
63
63
63
63
127
127
127
63
63
63
63
63
127
127
127
127
127
127
127
127
127
127
127
127
127
127
63
127
127
0
0
0
0
0
0
0
0
0
0
0
0
0
0
63
127
127
127
127
63
127
127
127
0
0
0
0
0
0
0
0
0
0
0
0
0
0
0
0
0
191
0
0
0
127
127
127
127
63
63
63
63
63
63
63
63
63
63
63
63
63
63
63
63
127
127
127
127
127
127
127
127
127
127
127
127
127
63
127
127
0
0
0
0
0
0
0
0
0
0
0
0
0
0
63
63
127
127
127
127
127
127
127
0
0
0
0
0
0
0
0
127
127
0
0
0
0
0
0
0
0
0
0
127
127
127
127
127
63
63
63
63
63
63
63
63
63
63
63
63
63
63
63
63
63
63
63
127
63
63
127
127
63
127
127
63
63
63
127
127
127
0
0
0
0
0
0
0
0
0
0
0
0
0
0
63
63
127
63
127
127
127
63
0
0
0
0
0
0
0
127
127
127
0
0
0
0
0
0
0
0
0
0
127
127
127
127
63
63
63
63
63
63
63
63
63
63
63
63
63
63
63
63
63
63
63
63
63
63
63
63
63
63
63
63
63
63
63
127
127
127
0
0
191
0
0
0
0
0
0
0
0
0
0
0
0
63
63
63
63
63
63
63
0
0
191
0
0
0
0
127
127
127
127
0
0
0
0
0
0
0
0
0
63
63
63
63
63
63
63
63
63
63
63
63
63
63
63
63
63
63
63
63
63
63
63
63
63
63
63
63
63
63
63
63
63
63
63
127
127
127
127
0
0
0
0
0
0
0
0
0
0
0
0
0
0
0
0
0
0
0
0
0
0
0
0
0
0
0
127
127
127
127
127
0
0
0
0
0
0
0
0
0
0
0
0
0
0
0
0
0
0
0
0
0
0
0
0
0
0
0
0
0
0
0
0
0
0
0
0
0
0
0
0
0
0
0
63
63
63
127
127
127
0
0
0
0
0
0
127
0
0
0
0
0
0
0
0
0
0
0
0
0
0
0
0
0
0
0
127
127
127
127
127
127
0
0
0
0
0
0
0
0
0
0
0
0
0
0
0
0
0
0
0
0
0
0
0
0
0
0
0
0
0
0
0
0
0
0
0
0
0
0
0
0
0
0
63
63
63
63
127
127
127
127
127
127
127
127
127
127
0
0
0
0
0
0
0
0
0
0
0
0
0
0
0
0
0
127
127
127
127
127
127
127
0
0
0
0
0
0
0
63
63
63
63
63
63
63
63
63
63
63
63
63
63
63
63
63
63
63
63
63
63
63
63
127
0
0
0
0
0
0
0
0
0
0
63
63
63
63
63
63
127
127
127
127
127
127
127
127
127
0
0
0
0
127
0
0
0
0
0
0
127
0
0
127
127
127
127
127
127
127
127
127
127
0
0
0
0
63
63
63
63
63
63
63
63
63
63
63
63
63
63
63
63
63
63
63
63
63
63
63
63
63
63
63
0
0
0
0
0
0
0
0
0
0
63
63
63
63
63
63
63
63
63
63
63
63
63
127
127
127
127
127
127
127
127
127
63
0
0
63
63
63
63
63
63
127
127
127
127
127
127
127
127
127
127
127
63
63
63
63
63
63
63
63
63
63
63
63
63
63
63
63
63
63
63
127
127
63
63
63
63
63
63
0
0
0
0
0
0
0
0
0
0
0
63
63
63
63
63
0
0
0
0
0
0
0
63
63
63
63
63
63
63
63
63
63
63
0
0
63
63
63
63
63
63
63
63
63
63
127
127
63
63
63
63
63
63
63
63
63
63
63
63
63
63
63
63
63
63
63
63
63
63
127
127
127
127
127
127
63
63
63
0
0
0
0
0
0
0
0
0
0
0
0
63
63
63
63
0
0
0
0
0
0
63
63
63
0
0
0
0
0
0
0
0
0
0
0
0
0
0
0
0
0
0
0
0
63
63
127
127
0
0
0
0
0
0
0
0
0
0
0
0
0
0
0
0
0
0
0
0
63
63
63
127
127
127
127
63
63
63
0
0
0
0
0
0
0
0
0
0
0
0
0
63
63
63
0
0
0
0
0
0
0
0
0
0
0
0
0
0
0
0
0
0
0
0
0
0
0
0
0
0
0
0
0
0
63
63
127
127
0
0
0
0
0
0
0
0
0
0
0
0
0
0
0
0
0
0
0
63
63
63
63
127
127
127
63
63
63
63
0
0
0
0
0
0
0
0
0
0
0
0
63
63
63
63
0
0
0
0
0
0
0
0
0
0
0
0
0
0
0
0
0
0
0
0
0
0
0
0
0
0
0
0
0
0
0
63
127
127
0
0
0
0
0
0
0
0
0
0
0
0
0
0
0
0
0
0
0
0
0
63
63
63
127
127
63
63
63
0
0
0
0
0
0
0
0
0
0
0
0
0
63
63
63
63
0
0
0
0
0
0
0
0
0
0
0
0
0
0
0
0
0
0
0
0
0
0
0
0
0
0
0
0
0
0
0
63
63
127
127
0
0
0
0
0
0
0
0
0
0
0
0
0
0
0
0
0
0
0
0
0
63
63
63
63
63
63
0
0
0
0
0
0
0
0
0
0
0
0
0
127
63
63
63
63
0
0
0
0
0
0
0
0
0
0
0
0
0
0
0
0
0
0
0
0
0
0
0
0
0
0
0
0
0
0
0
63
63
127
127
127
0
0
0
0
0
0
0
0
0
0
0
0
0
0
0
0
0
0
0
0
63
63
63
63
63
63
0
0
0
0
0
0
0
0
0
0
0
0
0
63
63
63
63
0
0
0
0
0
0
0
0
0
0
0
0
0
0
0
0
0
0
0
0
0
0
0
0
0
0
0
0
0
0
0
0
0
63
63
127
127
0
0
0
0
0
0
0
0
0
0
0
0
0
0
0
0
0
0
0
0
63
0
0
63
63
63
0
0
0
0
0
0
0
0
0
0
0
0
0
63
63
63
63
0
0
0
0
0
0
0
0
0
0
0
0
0
0
0
0
0
0
0
0
0
0
0
0
0
0
0
0
0
0
0
0
0
63
63
127
127
127
0
0
0
0
0
0
0
0
0
0
0
0
0
0
0
0
0
0
0
0
0
0
63
63
63
0
0
0
0
0
0
0
0
0
0
0
0
0
63
63
63
63
0
0
0
0
0
0
0
0
0
0
0
0
0
0
0
0
0
0
0
0
0
0
0
0
0
0
0
0
0
0
0
0
0
0
63
63
127
127
0
0
0
0
0
0
0
0
0
0
0
0
0
0
0
0
0
0
63
63
63
63
63
63
63
0
0
0
0
0
0
0
0
0
0
0
0
0
63
63
63
63
0
0
0
0
0
0
0
0
0
0
0
0
0
0
0
0
0
0
0
0
0
0
0
0
0
0
0
0
0
0
0
0
0
0
0
63
63
127
0
0
0
0
0
0
0
0
0
0
0
0
0
0
0
0
0
0
63
63
63
63
63
63
0
0
0
0
0
0
0
0
0
0
0
0
0
0
63
63
63
63
0
0
0
0
0
0
0
0
0
0
0
0
0
0
0
0
0
0
0
0
0
0
0
0
0
0
0
0
0
0
0
0
0
0
0
0
63
127
127
0
0
0
0
0
0
0
0
0
0
0
0
0
0
0
0
0
0
0
63
63
63
63
0
0
0
0
0
0
0
0
0
0
0
0
0
63
63
63
63
63
0
0
0
0
0
0
0
0
0
0
0
0
0
0
0
0
0
0
0
0
0
0
0
0
0
0
0
0
0
0
0
0
0
0
0
0
63
63
127
127
0
0
0
0
0
0
0
0
0
0
0
0
0
0
0
0
0
0
0
0
0
0
0
0
0
0
0
0
0
0
0
0
0
0
0
63
63
63
63
63
0
0
0
0
0
0
0
0
0
0
0
0
0
0
0
0
0
0
0
0
0
0
0
0
0
0
0
0
0
0
0
0
0
0
0
0
63
63
63
127
127
0
0
0
0
0
0
0
0
0
0
0
0
0
0
0
0
0
0
0
0
0
0
0
0
0
0
0
0
0
0
0
0
0
0
63
63
63
63
63
0
0
0
0
0
0
0
0
0
0
0
0
0
0
0
0
0
0
0
0
0
0
0
0
0
0
0
0
0
0
0
0
0
0
0
0
0
63
63
127
127
0
0
0
0
0
0
0
0
0
0
0
0
0
0
0
63
63
63
63
63
0
0
0
0
0
0
0
0
0
0
0
0
0
0
0
63
63
63
63
0
0
0
0
0
0
0
0
0
0
0
0
0
0
0
0
0
0
0
0
0
0
0
0
0
0
0
0
0
0
0
0
0
0
0
0
0
0
63
63
127
0
0
0
0
0
0
0
0
0
0
0
0
0
0
63
63
63
63
63
63
0
0
0
0
0
0
0
0
0
0
0
0
0
0
0
63
63
63
63
0
0
0
0
0
0
0
0
0
0
0
0
0
0
0
0
0
0
0
0
0
0
0
0
0
0
0
0
0
0
0
0
0
0
0
0
0
0
63
63
127
0
0
0
0
0
0
0
0
0
0
0
0
0
63
63
63
63
63
63
63
0
0
0
0
0
0
0
0
0
0
0
0
0
0
0
63
63
63
63
127
0
0
0
0
0
0
0
0
0
0
0
0
0
0
0
0
0
0
0
0
0
0
0
0
0
0
0
0
0
0
0
0
0
0
0
0
0
63
63
127
127
127
127
0
0
0
0
0
63
63
63
63
63
63
63
63
63
63
63
63
63
0
0
0
0
0
0
0
0
0
0
0
0
0
0
0
63
63
63
127
127
0
0
0
0
0
0
0
0
0
0
0
0
0
0
0
0
0
0
0
0
0
0
0
0
0
0
0
0
0
0
0
0
0
0
0
0
0
63
63
127
127
127
127
127
127
127
127
63
63
63
63
63
63
63
63
63
63
63
63
63
0
0
0
0
0
0
0
0
0
0
0
0
0
0
0
0
63
63
127
127
63
0
63
63
63
0
0
0
0
0
0
0
0
0
0
0
0
0
0
0
0
0
0
0
0
0
0
0
0
0
0
0
0
0
0
0
0
63
63
63
127
127
63
63
63
127
127
63
63
63
63
63
63
63
127
127
127
63
63
63
0
0
0
0
0
0
0
0
0
0
0
0
0
0
191
0
63
63
63
63
63
0
0
0
0
0
0
0
0
0
0
0
0
0
0
0
0
0
0
0
0
0
0
0
0
0
0
0
0
0
0
0
0
0
0
0
0
63
63
63
63
63
63
63
63
127
127
63
63
63
63
63
63
63
127
127
63
63
63
63
127
0
0
0
0
0
0
0
0
0
0
0
0
0
0
0
63
63
63
63
0
0
0
0
0
0
0
0
0
0
0
0
0
0
0
0
0
0
0
0
0
0
0
0
0
0
0
0
0
0
0
0
0
0
0
0
0
0
63
63
63
63
63
63
63
63
127
63
63
63
63
63
63
63
63
63
63
63
63
63
63
0
0
0
0
0
0
0
0
0
0
0
0
0
0
63
63
63
63
63
0
0
0
0
0
0
0
0
0
0
0
0
0
0
0
0
0
0
0
0
0
0
0
0
0
0
0
0
0
0
0
0
0
0
0
0
0
0
63
63
63
63
63
63
63
63
127
127
63
63
63
63
63
63
63
63
63
63
63
63
63
0
0
0
0
0
0
0
0
0
0
0
0
0
0
63
63
63
63
63
0
0
0
0
0
0
0
0
0
0
0
0
0
0
0
0
0
0
0
0
0
0
0
0
0
0
0
0
0
0
0
0
0
0
0
0
0
0
63
63
63
63
63
63
63
63
127
127
63
63
63
63
63
63
63
63
63
63
63
63
63
63
0
0
0
0
0
0
0
0
0
0
0
0
0
63
63
63
63
63
0
0
0
63
0
0
0
0
0
0
0
0
0
0
0
0
0
0
0
0
0
0
0
0
0
0
0
0
0
0
0
0
0
0
0
0
0
63
63
63
63
63
63
63
63
63
63
127
127
63
63
63
63
63
63
63
63
63
63
63
63
63
0
0
0
0
0
0
0
0
0
0
0
0
63
63
63
63
63
63
0
0
0
63
0
0
0
0
0
0
0
0
0
0
0
0
0
0
0
0
0
0
0
0
0
0
0
0
0
0
0
0
0
0
0
63
63
63
63
63
63
63
63
63
63
63
63
127
127
0
63
63
63
63
63
63
63
63
127
127
63
63
63
0
0
0
0
0
0
0
0
0
0
0
63
63
63
63
63
0
0
0
0
63
0
0
0
0
0
0
0
0
0
0
0
0
0
0
0
0
0
0
0
0
0
0
0
0
0
0
0
63
127
127
127
63
63
63
63
63
63
63
63
0
63
63
63
127
127
0
63
63
63
63
63
0
63
63
63
127
63
63
63
0
0
0
0
0
0
0
0
0
0
0
63
63
63
63
63
0
0
0
0
63
0
0
0
0
0
0
0
0
0
0
0
0
0
0
0
0
0
0
0
0
0
0
63
63
63
63
63
63
127
127
127
127
63
63
63
63
63
63
63
0
63
63
63
63
127
0
63
63
63
63
63
0
63
63
63
63
63
63
63
0
0
0
0
0
0
0
0
0
0
0
63
63
63
63
0
0
0
0
0
63
0
0
0
0
0
0
0
0
0
0
0
0
0
0
0
0
0
0
63
63
63
63
63
63
63
63
63
127
127
127
127
127
63
63
63
63
63
63
63
0
63
63
63
63
63
0
63
63
63
63
63
0
0
0
0
0
0
0
0
0
0
0
0
0
0
0
0
0
0
0
63
63
63
63
0
0
0
0
0
63
0
0
0
0
0
0
0
0
0
0
0
0
0
0
0
63
63
63
63
63
63
63
63
63
63
63
63
63
127
127
127
127
127
63
63
63
63
63
63
0
63
63
63
63
0
0
0
63
63
63
0
0
63
63
63
63
63
63
63
0
0
0
0
0
0
0
0
0
0
0
63
63
63
63
0
0
0
0
0
63
0
0
0
0
0
0
0
0
0
0
0
63
63
63
63
63
63
63
63
0
63
63
63
63
63
63
63
63
63
127
127
127
63
63
63
63
63
63
63
0
0
63
63
63
0
0
0
63
63
63
0
0
0
63
63
63
63
63
63
63
0
0
0
0
0
0
0
0
0
0
63
63
63
63
0
0
0
0
63
63
0
0
0
0
0
0
0
63
63
63
63
63
63
63
63
63
63
63
63
0
63
63
63
63
63
63
63
63
63
127
127
63
63
63
63
63
63
63
63
0
0
63
63
63
0
0
0
0
63
63
0
0
0
63
63
63
63
63
63
63
0
0
0
0
0
0
0
0
0
0
0
63
63
63
0
0
0
0
63
63
0
63
63
63
63
63
63
63
63
127
63
63
63
63
63
63
63
63
63
0
63
0
63
63
63
63
63
63
63
63
63
63
63
63
63
63
63
63
63
0
0
0
63
63
0
0
0
0
0
0
0
0
0
0
63
63
63
63
63
63
63
0
0
0
0
0
0
0
0
0
0
63
63
63
0
0
0
63
63
63
63
63
63
63
63
63
63
127
127
127
63
0
0
0
0
0
63
63
63
0
63
0
63
63
63
63
63
63
63
63
63
63
63
63
63
63
63
63
0
0
0
0
63
0
0
0
0
0
0
0
0
0
0
0
0
63
63
63
63
63
63
0
0
0
0
0
0
0
0
0
0
63
63
63
0
0
63
63
63
63
63
63
63
63
63
63
63
63
127
127
63
0
0
0
63
63
63
63
0
0
63
0
63
63
63
63
63
63
63
63
63
63
63
63
63
63
63
63
0
0
0
0
63
0
0
0
0
0
191
0
0
0
0
0
0
63
63
63
63
63
63
0
0
0
0
0
0
0
0
0
0
0
63
63
0
0
63
63
63
63
63
63
0
0
0
0
0
63
63
63
63
0
0
0
63
63
63
0
0
0
63
0
63
63
63
63
63
63
63
63
63
63
63
63
63
63
63
63
0
0
0
0
0
0
0
0
0
0
0
0
0
0
0
0
0
63
63
63
63
63
63
0
0
0
0
0
0
0
0
0
0
0
63
63
0
0
63
0
0
63
63
63
0
0
0
0
0
63
63
63
63
0
0
0
63
63
63
0
0
0
63
0
0
63
63
63
63
63
0
0
0
0
0
63
63
63
63
63
0
0
0
0
0
0
0
0
0
0
0
0
0
0
0
0
0
63
63
63
63
63
63
0
0
0
0
0
0
0
0
0
0
0
63
63
0
0
0
0
0
63
63
63
63
63
0
0
0
63
63
63
63
0
0
0
63
63
0
0
0
0
0
0
0
0
0
0
63
0
0
0
0
0
0
0
63
63
63
63
0
0
0
0
0
0
0
0
0
0
0
0
0
0
0
0
0
0
63
63
63
63
63
0
0
0
0
0
0
0
0
0
0
0
63
63
0
0
0
0
0
63
63
63
63
63
0
0
0
63
63
63
63
0
0
0
63
63
0
0
0
0
0
0
0
0
0
0
63
0
0
0
0
191
0
0
63
63
63
63
0
0
0
127
0
0
0
0
0
0
0
0
0
0
0
0
0
0
0
0
0
0
0
0
0
0
0
0
0
0
0
0
0
0
63
63
0
0
0
0
0
63
63
63
63
63
0
0
0
63
63
63
63
0
0
0
0
63
0
0
0
0
0
0
0
0
0
0
0
0
0
0
0
0
0
0
0
63
63
0
0
0
0
127
0
0
0
0
0
0
0
0
0
0
0
0
0
0
0
0
0
0
0
0
0
0
0
0
0
0
0
0
0
0
63
127
0
0
0
0
0
63
63
0
0
0
0
0
0
63
63
63
0
0
0
0
0
0
0
0
0
0
0
0
0
0
0
0
0
0
0
0
0
0
0
0
0
63
63
0
0
0
0
127
127
0
0
0
0
0
0
0
0
0
0
0
0
0
0
63
0
0
0
0
0
0
0
0
0
0
0
0
0
0
63
127
127
0
0
0
0
0
0
0
0
0
0
0
0
0
0
0
0
0
0
0
0
0
0
0
0
0
0
0
0
0
0
0
0
0
0
0
0
0
0
0
0
0
63
0
0
0
127
127
127
127
127
127
127
127
127
0
0
0
0
0
127
0
127
127
0
0
0
0
0
0
0
0
0
0
0
0
0
0
127
127
127
0
0
0
0
0
0
0
0
0
0
0
0
0
0
0
0
0
0
0
0
0
0
0
0
0
0
0
0
0
127
0
0
0
0
0
0
0
0
0
0
0
0
0
0
0
127
127
127
127
127
127
127
127
127
127
127
0
127
127
127
127
127
127
0
0
0
0
0
0
0
0
0
0
0
0
127
127
127
127
127
127
0
0
0
0
0
0
0
0
0
0
0
0
0
0
0
0
0
0
0
0
0
127
0
0
0
0
0
127
127
127
0
0
0
0
0
0
0
0
0
0
0
0
0
127
127
127
127
127
127
127
127
127
127
127
127
127
127
127
127
127
127
127
127
0
0
0
0
0
127
127
0
0
0
127
127
127
127
127
127
127
127
127
0
0
0
127
0
0
127
127
127
127
127
127
127
127
127
127
127
127
127
127
127
127
127
127
127
127
127
127
127
127
127
127
127
127
127
127
127
127
127
127
127
127
127
127
127
127
127
127
127
127
127
127
127
127
127
127
127
127
127
127
127
127
127
127
127
127
127
127
127
127
127
127
127
127
127
127
127
127
127
127
127
127
127
127
127
127
127
127
127
127
127
127
127
127
127
127
127
127
127
127
127
127
127
127
127
127
127
127
127
127
127
127
127
127
127
127
127
127
127
127
127
127
127
127
127
127
127
127
127
127
127
127
127
127
127
127
127
127
127
127
127
127
127
127
127
127
127
127
127
127
127
127
127
127
127
